<mxfile host="app.diagrams.net" agent="Mozilla/5.0 (Windows NT 10.0; Win64; x64) AppleWebKit/537.36 (KHTML, like Gecko) Chrome/133.0.0.0 Safari/537.36" version="26.1.0">
  <diagram name="Page-1" id="AnHe9vXjdUht-JFBFw4g">
    <mxGraphModel dx="1434" dy="772" grid="1" gridSize="10" guides="1" tooltips="1" connect="1" arrows="1" fold="1" page="1" pageScale="1" pageWidth="850" pageHeight="1100" math="0" shadow="0">
      <root>
        <mxCell id="0" />
        <mxCell id="1" parent="0" />
        <mxCell id="LQvsqVEhXdY3aeySfZ1_-5" style="edgeStyle=orthogonalEdgeStyle;rounded=0;orthogonalLoop=1;jettySize=auto;html=1;entryX=0.5;entryY=0;entryDx=0;entryDy=0;" edge="1" parent="1" source="LQvsqVEhXdY3aeySfZ1_-1" target="LQvsqVEhXdY3aeySfZ1_-2">
          <mxGeometry relative="1" as="geometry" />
        </mxCell>
        <mxCell id="LQvsqVEhXdY3aeySfZ1_-1" value="AppUser" style="html=1;whiteSpace=wrap;" vertex="1" parent="1">
          <mxGeometry x="70" y="350" width="110" height="50" as="geometry" />
        </mxCell>
        <mxCell id="LQvsqVEhXdY3aeySfZ1_-2" value="AppUserRole" style="html=1;whiteSpace=wrap;" vertex="1" parent="1">
          <mxGeometry x="70" y="460" width="110" height="50" as="geometry" />
        </mxCell>
        <mxCell id="LQvsqVEhXdY3aeySfZ1_-7" style="edgeStyle=orthogonalEdgeStyle;rounded=0;orthogonalLoop=1;jettySize=auto;html=1;entryX=1;entryY=0.5;entryDx=0;entryDy=0;" edge="1" parent="1" source="LQvsqVEhXdY3aeySfZ1_-3" target="LQvsqVEhXdY3aeySfZ1_-2">
          <mxGeometry relative="1" as="geometry" />
        </mxCell>
        <mxCell id="LQvsqVEhXdY3aeySfZ1_-8" style="edgeStyle=orthogonalEdgeStyle;rounded=0;orthogonalLoop=1;jettySize=auto;html=1;entryX=0;entryY=0.5;entryDx=0;entryDy=0;" edge="1" parent="1" source="LQvsqVEhXdY3aeySfZ1_-3" target="LQvsqVEhXdY3aeySfZ1_-4">
          <mxGeometry relative="1" as="geometry" />
        </mxCell>
        <mxCell id="LQvsqVEhXdY3aeySfZ1_-3" value="Role" style="html=1;whiteSpace=wrap;" vertex="1" parent="1">
          <mxGeometry x="240" y="460" width="110" height="50" as="geometry" />
        </mxCell>
        <mxCell id="LQvsqVEhXdY3aeySfZ1_-14" style="edgeStyle=orthogonalEdgeStyle;rounded=0;orthogonalLoop=1;jettySize=auto;html=1;entryX=0;entryY=0.5;entryDx=0;entryDy=0;" edge="1" parent="1" source="LQvsqVEhXdY3aeySfZ1_-4" target="LQvsqVEhXdY3aeySfZ1_-13">
          <mxGeometry relative="1" as="geometry" />
        </mxCell>
        <mxCell id="LQvsqVEhXdY3aeySfZ1_-4" value="Permission" style="html=1;whiteSpace=wrap;" vertex="1" parent="1">
          <mxGeometry x="420" y="460" width="110" height="50" as="geometry" />
        </mxCell>
        <mxCell id="LQvsqVEhXdY3aeySfZ1_-15" style="edgeStyle=orthogonalEdgeStyle;rounded=0;orthogonalLoop=1;jettySize=auto;html=1;" edge="1" parent="1" source="LQvsqVEhXdY3aeySfZ1_-9" target="LQvsqVEhXdY3aeySfZ1_-13">
          <mxGeometry relative="1" as="geometry" />
        </mxCell>
        <mxCell id="LQvsqVEhXdY3aeySfZ1_-9" value="Action" style="html=1;whiteSpace=wrap;" vertex="1" parent="1">
          <mxGeometry x="790" y="460" width="110" height="50" as="geometry" />
        </mxCell>
        <mxCell id="LQvsqVEhXdY3aeySfZ1_-12" style="edgeStyle=orthogonalEdgeStyle;rounded=0;orthogonalLoop=1;jettySize=auto;html=1;entryX=0.5;entryY=0;entryDx=0;entryDy=0;" edge="1" parent="1" source="LQvsqVEhXdY3aeySfZ1_-11" target="LQvsqVEhXdY3aeySfZ1_-9">
          <mxGeometry relative="1" as="geometry" />
        </mxCell>
        <mxCell id="LQvsqVEhXdY3aeySfZ1_-11" value="Menu" style="html=1;whiteSpace=wrap;" vertex="1" parent="1">
          <mxGeometry x="790" y="350" width="110" height="50" as="geometry" />
        </mxCell>
        <mxCell id="LQvsqVEhXdY3aeySfZ1_-13" value="PerAcMapping" style="html=1;whiteSpace=wrap;" vertex="1" parent="1">
          <mxGeometry x="610" y="460" width="110" height="50" as="geometry" />
        </mxCell>
      </root>
    </mxGraphModel>
  </diagram>
</mxfile>
